<?xml version="1.0" encoding="UTF-8"?>
<svg xmlns="http://www.w3.org/2000/svg" xmlns:xlink="http://www.w3.org/1999/xlink" width="160px" height="51px" viewBox="0 0 160 51" version="1.1">
<defs>
<linearGradient id="linear0" gradientUnits="userSpaceOnUse" x1="60.44" y1="361.94" x2="178.43" y2="634.17" gradientTransform="matrix(0.0929245,0,0,-0.0931274,1.762755,75.349996)">
<stop offset="0" style="stop-color:rgb(82.745098%,0%,85.882353%);stop-opacity:1;"/>
<stop offset="1" style="stop-color:rgb(100%,40%,0%);stop-opacity:1;"/>
</linearGradient>
<linearGradient id="linear1" gradientUnits="userSpaceOnUse" x1="64.29" y1="360.26" x2="182.31" y2="632.49" gradientTransform="matrix(0.0929245,0,0,-0.0931274,1.762755,75.349996)">
<stop offset="0" style="stop-color:rgb(82.745098%,0%,85.882353%);stop-opacity:1;"/>
<stop offset="1" style="stop-color:rgb(100%,40%,0%);stop-opacity:1;"/>
</linearGradient>
<linearGradient id="linear2" gradientUnits="userSpaceOnUse" x1="433.39" y1="635.27" x2="123.11" y2="482.29" gradientTransform="matrix(0.0929245,0,0,-0.0931274,1.762755,75.349996)">
<stop offset="0" style="stop-color:rgb(82.745098%,0%,85.882353%);stop-opacity:1;"/>
<stop offset="1" style="stop-color:rgb(0%,81.176471%,100%);stop-opacity:1;"/>
</linearGradient>
<linearGradient id="linear3" gradientUnits="userSpaceOnUse" x1="255.05" y1="735.89" x2="332.83" y2="140.49" gradientTransform="matrix(0.0929245,0,0,-0.0931274,1.762755,75.349996)">
<stop offset="0" style="stop-color:rgb(100%,55.686275%,10.588235%);stop-opacity:1;"/>
<stop offset="1" style="stop-color:rgb(63.529412%,0%,59.607843%);stop-opacity:1;"/>
</linearGradient>
<linearGradient id="linear4" gradientUnits="userSpaceOnUse" x1="255.53" y1="735.98" x2="333.31" y2="140.57" gradientTransform="matrix(0.0929245,0,0,-0.0931274,1.762755,75.349996)">
<stop offset="0" style="stop-color:rgb(100%,55.686275%,10.588235%);stop-opacity:1;"/>
<stop offset="1" style="stop-color:rgb(63.529412%,0%,59.607843%);stop-opacity:1;"/>
</linearGradient>
<linearGradient id="linear5" gradientUnits="userSpaceOnUse" x1="159.64" y1="381.49" x2="293.54" y2="381.49" gradientTransform="matrix(0.0929245,0,0,-0.0931274,1.762755,75.349996)">
<stop offset="0" style="stop-color:rgb(0%,84.705882%,0%);stop-opacity:1;"/>
<stop offset="1" style="stop-color:rgb(0%,81.176471%,100%);stop-opacity:1;"/>
</linearGradient>
<linearGradient id="linear6" gradientUnits="userSpaceOnUse" x1="293.24" y1="285.06" x2="300.88" y2="282.41" gradientTransform="matrix(0.0929245,0,0,-0.0931274,1.762755,75.349996)">
<stop offset="0" style="stop-color:rgb(0%,84.705882%,0%);stop-opacity:1;"/>
<stop offset="1" style="stop-color:rgb(0%,81.176471%,100%);stop-opacity:1;"/>
</linearGradient>
<linearGradient id="linear7" gradientUnits="userSpaceOnUse" x1="305.03" y1="573.27" x2="302.53" y2="572.04" gradientTransform="matrix(0.0929245,0,0,-0.0931274,1.762755,75.349996)">
<stop offset="0" style="stop-color:rgb(82.745098%,0%,85.882353%);stop-opacity:1;"/>
<stop offset="1" style="stop-color:rgb(0%,81.176471%,100%);stop-opacity:1;"/>
</linearGradient>
<linearGradient id="linear8" gradientUnits="userSpaceOnUse" x1="358.58" y1="593.25" x2="121.23" y2="518.12" gradientTransform="matrix(0.0929245,0,0,-0.0931274,1.762755,75.349996)">
<stop offset="0" style="stop-color:rgb(82.745098%,0%,85.882353%);stop-opacity:1;"/>
<stop offset="1" style="stop-color:rgb(0%,81.176471%,100%);stop-opacity:1;"/>
</linearGradient>
<linearGradient id="linear9" gradientUnits="userSpaceOnUse" x1="358.31" y1="594.03" x2="120.96" y2="518.94" gradientTransform="matrix(0.0929245,0,0,-0.0931274,1.762755,75.349996)">
<stop offset="0" style="stop-color:rgb(82.745098%,0%,85.882353%);stop-opacity:1;"/>
<stop offset="1" style="stop-color:rgb(0%,81.176471%,100%);stop-opacity:1;"/>
</linearGradient>
</defs>
<g id="surface1">
<path style=" stroke:none;fill-rule:nonzero;fill:url(#linear0);" d="M 5.261719 40.007812 C 4.707031 41.214844 5.230469 42.648438 6.433594 43.207031 C 7.640625 43.765625 9.070312 43.238281 9.625 42.03125 L 15.796875 28.707031 L 9.5625 30.722656 Z M 5.261719 40.007812 "/>
<path style=" stroke:none;fill-rule:nonzero;fill:url(#linear1);" d="M 20.59375 12.605469 C 19.394531 12.042969 17.96875 12.5625 17.410156 13.761719 C 17.40625 13.769531 17.402344 13.773438 17.402344 13.777344 L 12.324219 24.757812 L 18.558594 22.738281 L 21.769531 15.796875 C 22.324219 14.59375 21.800781 13.164062 20.597656 12.605469 Z M 20.59375 12.605469 "/>
<path style=" stroke:none;fill-rule:nonzero;fill:url(#linear2);" d="M 33.617188 22.542969 C 32.28125 22.492188 31.238281 21.363281 31.289062 20.023438 C 31.328125 19.039062 31.957031 18.171875 32.878906 17.835938 L 35.238281 17.078125 C 36.492188 16.632812 37.867188 17.285156 38.3125 18.542969 C 38.757812 19.796875 38.105469 21.175781 36.855469 21.621094 C 36.804688 21.640625 36.757812 21.65625 36.707031 21.671875 L 34.351562 22.425781 C 34.117188 22.503906 33.867188 22.542969 33.617188 22.542969 Z M 33.617188 22.542969 "/>
<path style=" stroke:none;fill-rule:nonzero;fill:url(#linear3);" d="M 29.839844 21.621094 C 29.84375 21.644531 29.84375 21.671875 29.839844 21.695312 L 27.683594 5.21875 C 27.65625 3.878906 26.550781 2.8125 25.210938 2.839844 C 23.875 2.863281 22.808594 3.972656 22.835938 5.3125 C 22.839844 5.5 22.863281 5.6875 22.910156 5.871094 L 24.867188 20.691406 L 26.816406 20.0625 C 28.078125 19.667969 29.425781 20.363281 29.839844 21.621094 Z M 29.839844 21.621094 "/>
<path style=" stroke:none;fill-rule:nonzero;fill:url(#linear4);" d="M 29.953125 22.433594 C 29.921875 23.453125 29.253906 24.34375 28.285156 24.65625 L 25.515625 25.554688 L 27.324219 39.203125 L 32.578125 45.402344 C 32.855469 45.730469 33.042969 46.121094 33.121094 46.542969 Z M 29.953125 22.433594 "/>
<path style=" stroke:none;fill-rule:nonzero;fill:url(#linear5);" d="M 29.039062 48.640625 C 29 48.609375 28.964844 48.574219 28.933594 48.535156 L 17.175781 34.75 C 16.449219 33.621094 16.777344 32.117188 17.902344 31.390625 C 18.820312 30.800781 20.019531 30.894531 20.832031 31.625 L 27.3125 39.210938 L 28.382812 47.28125 C 28.445312 47.792969 28.675781 48.269531 29.039062 48.640625 Z M 29.039062 48.640625 "/>
<path style=" stroke:none;fill-rule:nonzero;fill:rgb(0%,18.039216%,49.019608%);fill-opacity:1;" d="M 33.167969 46.992188 C 33.167969 47.085938 33.160156 47.179688 33.144531 47.273438 C 33.144531 47.324219 33.136719 47.375 33.121094 47.425781 C 33.105469 47.523438 33.082031 47.621094 33.050781 47.714844 C 33.027344 47.777344 33.007812 47.835938 32.976562 47.902344 C 32.945312 48 32.898438 48.09375 32.839844 48.183594 C 32.773438 48.296875 32.695312 48.402344 32.605469 48.503906 C 32.523438 48.609375 32.429688 48.707031 32.328125 48.792969 C 32.160156 48.929688 31.976562 49.046875 31.78125 49.140625 C 31.707031 49.175781 31.628906 49.207031 31.550781 49.230469 C 31.480469 49.253906 31.40625 49.277344 31.332031 49.292969 C 31.246094 49.316406 31.160156 49.332031 31.070312 49.339844 C 30.96875 49.355469 30.867188 49.367188 30.765625 49.367188 C 30.660156 49.367188 30.554688 49.359375 30.449219 49.339844 C 30.402344 49.339844 30.359375 49.332031 30.316406 49.316406 C 30.09375 49.277344 29.878906 49.207031 29.679688 49.101562 C 29.503906 49.011719 29.339844 48.902344 29.191406 48.773438 C 29.136719 48.730469 29.085938 48.683594 29.039062 48.625 C 28.679688 48.257812 28.449219 47.78125 28.382812 47.269531 L 27.316406 39.210938 L 32.578125 45.402344 C 32.855469 45.730469 33.042969 46.121094 33.121094 46.542969 C 33.148438 46.691406 33.164062 46.839844 33.167969 46.992188 Z M 33.167969 46.992188 "/>
<path style=" stroke:none;fill-rule:nonzero;fill:url(#linear6);" d="M 29.679688 49.113281 C 29.503906 49.03125 29.339844 48.917969 29.191406 48.785156 C 29.339844 48.914062 29.503906 49.027344 29.679688 49.113281 Z M 29.679688 49.113281 "/>
<path style=" stroke:none;fill-rule:nonzero;fill:rgb(2.745098%,12.941176%,55.686275%);fill-opacity:1;" d="M 18.554688 22.738281 L 15.796875 28.707031 L 9.566406 30.722656 L 12.324219 24.757812 Z M 18.554688 22.738281 "/>
<path style=" stroke:none;fill-rule:nonzero;fill:rgb(0%,0%,0%);fill-opacity:1;" d="M 29.953125 22.421875 C 29.929688 23.445312 29.257812 24.34375 28.285156 24.65625 L 25.515625 25.554688 L 24.875 20.695312 L 26.824219 20.066406 C 28.085938 19.671875 29.433594 20.367188 29.847656 21.625 C 29.851562 21.648438 29.851562 21.671875 29.847656 21.699219 L 29.957031 22.417969 Z M 29.953125 22.421875 "/>
<path style=" stroke:none;fill-rule:nonzero;fill:url(#linear7);" d="M 29.953125 22.421875 L 29.859375 21.703125 C 29.933594 21.9375 29.964844 22.179688 29.953125 22.421875 Z M 29.953125 22.421875 "/>
<path style=" stroke:none;fill-rule:nonzero;fill:url(#linear8);" d="M 1.875 30.664062 C 2.199219 31.664062 3.132812 32.339844 4.183594 32.339844 C 4.433594 32.339844 4.683594 32.300781 4.921875 32.222656 L 9.582031 30.71875 L 12.351562 24.757812 L 3.429688 27.636719 C 2.171875 28.050781 1.480469 29.398438 1.875 30.664062 Z M 1.875 30.664062 "/>
<path style=" stroke:none;fill-rule:nonzero;fill:url(#linear9);" d="M 24.867188 20.691406 L 18.554688 22.738281 L 15.796875 28.707031 L 25.507812 25.558594 Z M 24.867188 20.691406 "/>
<path style=" stroke:none;fill-rule:nonzero;fill:rgb(100%,0%,19.215686%);fill-opacity:1;" d="M 49.804688 43.878906 C 49.804688 44.738281 49.414062 45.15625 48.695312 45.15625 C 47.976562 45.15625 47.675781 44.8125 47.675781 43.945312 L 47.675781 40.21875 L 45.5 40.21875 L 45.5 44.414062 C 45.5 46.046875 46.347656 46.933594 47.808594 46.933594 C 48.605469 46.972656 49.359375 46.589844 49.804688 45.929688 L 49.804688 46.742188 L 51.972656 46.742188 L 51.972656 40.21875 L 49.792969 40.21875 Z M 49.804688 43.878906 "/>
<path style=" stroke:none;fill-rule:nonzero;fill:rgb(100%,0%,19.215686%);fill-opacity:1;" d="M 57.195312 40.023438 C 56.402344 39.976562 55.644531 40.347656 55.1875 41 L 55.1875 40.21875 L 53.0625 40.21875 L 53.0625 49.378906 L 55.242188 49.378906 L 55.242188 46.019531 C 55.699219 46.628906 56.4375 46.96875 57.199219 46.921875 C 58.28125 46.972656 59.285156 46.351562 59.726562 45.355469 C 60.195312 44.148438 60.195312 42.8125 59.726562 41.605469 C 59.292969 40.605469 58.285156 39.976562 57.199219 40.023438 Z M 57.601562 44.476562 C 57.398438 44.910156 56.949219 45.171875 56.472656 45.132812 C 55.652344 45.132812 55.210938 44.609375 55.210938 43.640625 L 55.210938 43.292969 C 55.210938 42.328125 55.652344 41.804688 56.472656 41.804688 C 56.945312 41.765625 57.394531 42.027344 57.59375 42.457031 C 57.714844 42.785156 57.765625 43.132812 57.75 43.480469 C 57.769531 43.820312 57.71875 44.160156 57.601562 44.476562 Z M 57.601562 44.476562 "/>
<path style=" stroke:none;fill-rule:nonzero;fill:rgb(100%,0%,19.215686%);fill-opacity:1;" d="M 74.4375 40.035156 C 73.914062 40.03125 73.433594 40.332031 73.210938 40.804688 L 73.210938 40.21875 L 71.046875 40.21875 L 71.046875 46.742188 L 73.222656 46.742188 L 73.222656 42.621094 C 73.222656 42.164062 73.261719 42.058594 73.445312 41.980469 C 73.644531 42.355469 74.042969 42.585938 74.464844 42.566406 C 75.132812 42.589844 75.691406 42.070312 75.714844 41.402344 C 75.714844 41.367188 75.714844 41.335938 75.714844 41.300781 C 75.753906 40.640625 75.253906 40.074219 74.59375 40.035156 C 74.542969 40.03125 74.488281 40.03125 74.4375 40.035156 Z M 74.4375 40.035156 "/>
<path style=" stroke:none;fill-rule:nonzero;fill:rgb(100%,0%,19.215686%);fill-opacity:1;" d="M 79.402344 40.023438 C 77.941406 40.023438 76.832031 40.453125 76.398438 41.410156 C 76.277344 41.703125 76.214844 42.011719 76.207031 42.328125 L 78.421875 42.328125 C 78.425781 42.191406 78.453125 42.058594 78.5 41.933594 C 78.628906 41.648438 78.917969 41.515625 79.425781 41.515625 C 79.933594 41.515625 80.195312 41.660156 80.328125 41.949219 C 80.417969 42.167969 80.453125 42.40625 80.429688 42.644531 L 80.429688 42.746094 L 79.453125 42.746094 C 77.863281 42.746094 76.597656 42.984375 76.125 44.003906 C 76.015625 44.285156 75.960938 44.589844 75.96875 44.890625 C 75.957031 45.210938 76.019531 45.527344 76.15625 45.820312 C 76.480469 46.550781 77.25 46.914062 78.28125 46.914062 C 79.3125 46.914062 80.011719 46.566406 80.429688 45.960938 L 80.429688 46.734375 L 82.609375 46.734375 L 82.609375 42.988281 C 82.625 42.441406 82.53125 41.894531 82.335938 41.382812 C 81.90625 40.441406 80.976562 40.023438 79.402344 40.023438 Z M 80.441406 44.0625 C 80.460938 44.308594 80.421875 44.554688 80.324219 44.78125 C 80.152344 45.15625 79.777344 45.367188 79.191406 45.367188 C 78.851562 45.417969 78.515625 45.261719 78.328125 44.976562 C 78.238281 44.785156 78.238281 44.566406 78.328125 44.375 C 78.46875 44.027344 78.980469 43.96875 79.605469 43.96875 L 80.441406 43.96875 Z M 80.441406 44.0625 "/>
<path style=" stroke:none;fill-rule:nonzero;fill:rgb(100%,0%,19.215686%);fill-opacity:1;" d="M 88.332031 37.511719 L 88.332031 40.925781 C 87.871094 40.316406 87.136719 39.976562 86.375 40.023438 C 85.285156 39.96875 84.277344 40.601562 83.847656 41.605469 C 83.378906 42.808594 83.378906 44.148438 83.847656 45.351562 C 84.285156 46.351562 85.289062 46.976562 86.375 46.921875 C 87.167969 46.96875 87.925781 46.601562 88.382812 45.957031 L 88.382812 46.742188 L 90.511719 46.742188 L 90.511719 37.511719 Z M 88.359375 43.671875 C 88.359375 44.632812 87.917969 45.160156 87.097656 45.160156 C 86.625 45.199219 86.175781 44.9375 85.976562 44.507812 C 85.855469 44.171875 85.800781 43.820312 85.820312 43.464844 C 85.800781 43.117188 85.855469 42.769531 85.976562 42.445312 C 86.175781 42.011719 86.625 41.75 87.097656 41.792969 C 87.917969 41.792969 88.359375 42.316406 88.359375 43.28125 Z M 88.359375 43.671875 "/>
<path style=" stroke:none;fill-rule:nonzero;fill:rgb(100%,0%,19.215686%);fill-opacity:1;" d="M 66.125 43.511719 L 67.53125 43.511719 L 67.476562 43.730469 C 67.300781 44.464844 66.4375 44.953125 65.726562 44.953125 C 64.746094 44.953125 63.480469 44.480469 63.480469 42.230469 C 63.480469 40.363281 64.296875 39.453125 65.554688 39.453125 C 66.25 39.453125 66.765625 39.617188 67.082031 40.09375 C 67.226562 40.316406 67.316406 40.566406 67.351562 40.828125 L 69.839844 40.828125 C 69.820312 40.023438 69.5 39.253906 68.9375 38.675781 L 68.894531 38.632812 C 68.140625 37.808594 66.996094 37.351562 65.585938 37.351562 C 62.710938 37.351562 60.851562 39.269531 60.851562 42.242188 C 60.851562 45.679688 63.203125 46.898438 65.222656 46.898438 C 66.355469 46.898438 67.375 46.550781 67.992188 45.894531 L 68.023438 46.742188 L 69.980469 46.742188 L 69.980469 41.832031 L 66.125 41.832031 L 66.125 43.515625 Z M 66.125 43.511719 "/>
<path style=" stroke:none;fill-rule:nonzero;fill:rgb(0%,0%,0%);fill-opacity:1;" d="M 48.078125 18.5625 L 48.078125 26.296875 L 48.507812 26.296875 C 48.648438 26.304688 48.789062 26.277344 48.917969 26.222656 C 49.03125 26.160156 49.125 26.066406 49.191406 25.957031 L 50.992188 23.265625 C 51.085938 23.121094 51.210938 23 51.367188 22.917969 C 51.535156 22.839844 51.722656 22.800781 51.914062 22.808594 L 54.523438 22.808594 L 52.058594 26.207031 C 51.949219 26.359375 51.820312 26.503906 51.679688 26.632812 C 51.539062 26.761719 51.390625 26.878906 51.230469 26.980469 C 51.515625 27.199219 51.757812 27.46875 51.9375 27.777344 L 54.621094 32.347656 L 52.046875 32.347656 C 51.855469 32.351562 51.664062 32.316406 51.492188 32.242188 C 51.324219 32.164062 51.191406 32.03125 51.109375 31.867188 L 49.308594 28.488281 C 49.25 28.363281 49.15625 28.261719 49.042969 28.1875 C 48.910156 28.132812 48.769531 28.109375 48.625 28.117188 L 48.074219 28.117188 L 48.074219 32.359375 L 45.226562 32.359375 L 45.226562 18.5625 Z M 48.078125 18.5625 "/>
<path style=" stroke:none;fill-rule:nonzero;fill:rgb(0%,0%,0%);fill-opacity:1;" d="M 55.265625 32.359375 L 55.265625 22.804688 L 57.03125 22.804688 C 57.1875 22.800781 57.34375 22.839844 57.476562 22.925781 C 57.597656 23.007812 57.6875 23.128906 57.730469 23.269531 L 57.898438 23.824219 C 58.078125 23.652344 58.265625 23.492188 58.464844 23.34375 C 58.664062 23.199219 58.875 23.074219 59.09375 22.96875 C 59.328125 22.867188 59.574219 22.785156 59.824219 22.734375 C 60.101562 22.671875 60.386719 22.644531 60.671875 22.644531 C 61.148438 22.632812 61.621094 22.726562 62.058594 22.917969 C 62.445312 23.089844 62.792969 23.347656 63.070312 23.671875 C 63.355469 24.011719 63.570312 24.402344 63.699219 24.824219 C 63.84375 25.292969 63.914062 25.78125 63.910156 26.273438 L 63.910156 32.363281 L 61.058594 32.363281 L 61.058594 26.289062 C 61.082031 25.898438 60.96875 25.511719 60.738281 25.199219 C 60.5 24.925781 60.148438 24.78125 59.789062 24.808594 C 59.480469 24.800781 59.175781 24.871094 58.898438 25.003906 C 58.609375 25.148438 58.34375 25.332031 58.105469 25.550781 L 58.105469 32.363281 L 55.265625 32.363281 Z M 55.265625 32.359375 "/>
<path style=" stroke:none;fill-rule:nonzero;fill:rgb(0%,0%,0%);fill-opacity:1;" d="M 69.632812 22.65625 C 70.308594 22.648438 70.976562 22.765625 71.609375 23.003906 C 72.777344 23.433594 73.699219 24.351562 74.136719 25.519531 C 74.375 26.171875 74.496094 26.863281 74.480469 27.558594 C 74.492188 28.261719 74.375 28.960938 74.136719 29.617188 C 73.917969 30.203125 73.578125 30.734375 73.140625 31.175781 C 72.707031 31.609375 72.183594 31.945312 71.609375 32.160156 C 70.976562 32.398438 70.308594 32.515625 69.632812 32.507812 C 68.953125 32.515625 68.277344 32.398438 67.640625 32.160156 C 67.066406 31.941406 66.539062 31.609375 66.097656 31.175781 C 65.65625 30.734375 65.316406 30.203125 65.097656 29.617188 C 64.855469 28.960938 64.738281 28.261719 64.75 27.558594 C 64.738281 26.863281 64.855469 26.171875 65.097656 25.519531 C 65.3125 24.933594 65.652344 24.402344 66.089844 23.960938 C 66.53125 23.53125 67.058594 23.199219 67.636719 22.984375 C 68.277344 22.753906 68.953125 22.644531 69.632812 22.65625 Z M 69.632812 30.386719 C 70.203125 30.429688 70.753906 30.167969 71.082031 29.695312 C 71.390625 29.230469 71.542969 28.527344 71.542969 27.582031 C 71.542969 26.632812 71.390625 25.933594 71.082031 25.46875 C 70.753906 24.996094 70.203125 24.734375 69.632812 24.777344 C 69.050781 24.730469 68.492188 24.996094 68.15625 25.46875 C 67.839844 25.933594 67.683594 26.632812 67.683594 27.582031 C 67.683594 28.527344 67.839844 29.230469 68.15625 29.695312 C 68.492188 30.171875 69.054688 30.433594 69.632812 30.386719 Z M 69.632812 30.386719 "/>
<path style=" stroke:none;fill-rule:nonzero;fill:rgb(0%,0%,0%);fill-opacity:1;" d="M 74.386719 22.804688 L 76.671875 22.804688 C 76.855469 22.800781 77.035156 22.847656 77.191406 22.945312 C 77.328125 23.015625 77.421875 23.144531 77.460938 23.289062 L 78.417969 27.578125 C 78.492188 27.902344 78.558594 28.21875 78.621094 28.523438 C 78.683594 28.828125 78.734375 29.132812 78.78125 29.4375 C 78.871094 29.132812 78.960938 28.832031 79.054688 28.527344 C 79.152344 28.222656 79.242188 27.90625 79.335938 27.578125 L 80.53125 23.28125 C 80.578125 23.136719 80.671875 23.011719 80.796875 22.933594 C 80.945312 22.835938 81.113281 22.789062 81.285156 22.789062 L 82.554688 22.789062 C 82.738281 22.785156 82.917969 22.835938 83.074219 22.933594 C 83.203125 23.007812 83.300781 23.132812 83.34375 23.28125 L 84.488281 27.578125 C 84.570312 27.902344 84.660156 28.21875 84.746094 28.523438 C 84.832031 28.828125 84.917969 29.140625 85 29.453125 C 85.046875 29.148438 85.109375 28.84375 85.179688 28.539062 C 85.25 28.230469 85.324219 27.914062 85.402344 27.578125 L 86.414062 23.289062 C 86.453125 23.144531 86.546875 23.019531 86.679688 22.945312 C 86.824219 22.847656 86.996094 22.800781 87.167969 22.804688 L 89.335938 22.804688 L 86.378906 32.359375 L 84.058594 32.359375 C 83.945312 32.359375 83.835938 32.320312 83.75 32.246094 C 83.648438 32.148438 83.578125 32.019531 83.546875 31.878906 L 82.1875 27.113281 C 82.125 26.898438 82.066406 26.6875 82.011719 26.480469 C 81.953125 26.269531 81.90625 26.0625 81.863281 25.855469 C 81.820312 26.070312 81.773438 26.28125 81.722656 26.492188 C 81.671875 26.707031 81.609375 26.921875 81.542969 27.136719 L 80.15625 31.878906 C 80.101562 32.167969 79.839844 32.375 79.546875 32.359375 L 77.339844 32.359375 Z M 74.386719 22.804688 "/>
<path style=" stroke:none;fill-rule:nonzero;fill:rgb(0%,0%,0%);fill-opacity:1;" d="M 92.835938 18.5625 L 92.835938 32.359375 L 89.984375 32.359375 L 89.984375 18.5625 Z M 92.835938 18.5625 "/>
<path style=" stroke:none;fill-rule:nonzero;fill:rgb(0%,0%,0%);fill-opacity:1;" d="M 98.660156 22.65625 C 99.25 22.648438 99.835938 22.75 100.390625 22.949219 C 100.894531 23.136719 101.355469 23.429688 101.742188 23.808594 C 102.128906 24.203125 102.429688 24.675781 102.625 25.195312 C 102.84375 25.785156 102.953125 26.414062 102.941406 27.042969 C 102.945312 27.21875 102.933594 27.394531 102.914062 27.570312 C 102.902344 27.683594 102.867188 27.792969 102.8125 27.894531 C 102.769531 27.96875 102.699219 28.027344 102.613281 28.054688 C 102.511719 28.089844 102.40625 28.105469 102.296875 28.105469 L 96.804688 28.105469 C 96.828125 28.75 97.089844 29.367188 97.53125 29.839844 C 97.945312 30.210938 98.492188 30.402344 99.046875 30.378906 C 99.335938 30.386719 99.625 30.34375 99.902344 30.257812 C 100.121094 30.1875 100.335938 30.097656 100.539062 29.992188 L 101.054688 29.726562 C 101.207031 29.644531 101.375 29.605469 101.546875 29.605469 C 101.75 29.59375 101.945312 29.6875 102.0625 29.855469 L 102.890625 30.894531 C 102.617188 31.214844 102.292969 31.492188 101.9375 31.71875 C 101.613281 31.925781 101.265625 32.09375 100.898438 32.21875 C 100.550781 32.332031 100.191406 32.417969 99.824219 32.464844 C 99.480469 32.511719 99.132812 32.53125 98.785156 32.53125 C 98.144531 32.539062 97.507812 32.425781 96.90625 32.207031 C 96.332031 31.996094 95.808594 31.664062 95.367188 31.234375 C 94.914062 30.777344 94.5625 30.234375 94.328125 29.632812 C 94.0625 28.921875 93.933594 28.164062 93.949219 27.40625 C 93.945312 26.785156 94.054688 26.167969 94.273438 25.589844 C 94.699219 24.449219 95.578125 23.535156 96.699219 23.0625 C 97.316406 22.792969 97.984375 22.65625 98.65625 22.65625 Z M 98.714844 24.628906 C 98.246094 24.601562 97.78125 24.769531 97.4375 25.09375 C 97.101562 25.464844 96.890625 25.9375 96.832031 26.433594 L 100.386719 26.433594 C 100.390625 26.210938 100.359375 25.988281 100.300781 25.773438 C 100.246094 25.5625 100.148438 25.367188 100.015625 25.195312 C 99.878906 25.019531 99.699219 24.878906 99.496094 24.785156 C 99.253906 24.671875 98.988281 24.617188 98.722656 24.625 L 98.714844 24.625 Z M 98.714844 24.628906 "/>
<path style=" stroke:none;fill-rule:nonzero;fill:rgb(0%,0%,0%);fill-opacity:1;" d="M 110.722656 32.359375 C 110.566406 32.363281 110.410156 32.324219 110.277344 32.238281 C 110.15625 32.15625 110.066406 32.035156 110.023438 31.890625 L 109.800781 31.160156 C 109.617188 31.363281 109.417969 31.546875 109.203125 31.714844 C 108.777344 32.050781 108.277344 32.289062 107.75 32.40625 C 107.449219 32.472656 107.148438 32.503906 106.839844 32.503906 C 106.359375 32.503906 105.882812 32.382812 105.457031 32.15625 C 105.023438 31.921875 104.648438 31.597656 104.363281 31.195312 C 104.03125 30.730469 103.789062 30.214844 103.640625 29.664062 C 103.457031 28.984375 103.367188 28.285156 103.378906 27.582031 C 103.371094 26.90625 103.472656 26.234375 103.671875 25.59375 C 103.847656 25.015625 104.132812 24.480469 104.503906 24.011719 C 104.855469 23.574219 105.296875 23.21875 105.796875 22.96875 C 106.3125 22.714844 106.882812 22.585938 107.460938 22.59375 C 107.886719 22.582031 108.308594 22.65625 108.703125 22.808594 C 109.039062 22.949219 109.351562 23.140625 109.628906 23.375 L 109.628906 18.566406 L 112.480469 18.566406 L 112.480469 32.359375 Z M 107.835938 30.316406 C 108.027344 30.316406 108.214844 30.296875 108.398438 30.253906 C 108.5625 30.214844 108.71875 30.160156 108.863281 30.082031 C 109.007812 30.007812 109.140625 29.914062 109.265625 29.808594 C 109.398438 29.6875 109.523438 29.558594 109.636719 29.421875 L 109.636719 25.367188 C 109.445312 25.148438 109.210938 24.976562 108.945312 24.863281 C 108.691406 24.769531 108.425781 24.71875 108.15625 24.722656 C 107.90625 24.71875 107.660156 24.773438 107.429688 24.878906 C 107.199219 24.992188 107 25.164062 106.855469 25.378906 C 106.675781 25.65625 106.546875 25.960938 106.472656 26.28125 C 106.375 26.71875 106.328125 27.164062 106.335938 27.617188 C 106.328125 28.042969 106.367188 28.46875 106.445312 28.886719 C 106.5 29.179688 106.605469 29.460938 106.753906 29.71875 C 106.867188 29.914062 107.03125 30.070312 107.230469 30.175781 C 107.417969 30.269531 107.625 30.316406 107.835938 30.316406 Z M 107.835938 30.316406 "/>
<path style=" stroke:none;fill-rule:nonzero;fill:rgb(0%,0%,0%);fill-opacity:1;" d="M 117.507812 22.636719 C 117.890625 22.636719 118.277344 22.675781 118.652344 22.757812 C 118.996094 22.832031 119.332031 22.949219 119.652344 23.105469 L 122.53125 23.105469 L 122.53125 24.144531 C 122.539062 24.285156 122.488281 24.421875 122.394531 24.523438 C 122.265625 24.632812 122.109375 24.707031 121.941406 24.734375 L 121.25 24.890625 C 121.335938 25.167969 121.378906 25.457031 121.378906 25.746094 C 121.386719 26.195312 121.28125 26.636719 121.082031 27.035156 C 120.882812 27.417969 120.601562 27.746094 120.261719 28.007812 C 119.894531 28.289062 119.476562 28.496094 119.035156 28.625 C 118.542969 28.773438 118.03125 28.847656 117.519531 28.84375 C 117.234375 28.84375 116.953125 28.824219 116.671875 28.789062 C 116.460938 28.910156 116.359375 29.054688 116.359375 29.214844 C 116.359375 29.371094 116.460938 29.511719 116.609375 29.5625 C 116.828125 29.640625 117.050781 29.691406 117.277344 29.710938 C 117.550781 29.738281 117.871094 29.753906 118.222656 29.753906 C 118.578125 29.753906 118.941406 29.753906 119.3125 29.800781 C 119.675781 29.835938 120.039062 29.894531 120.394531 29.972656 C 120.730469 30.046875 121.050781 30.175781 121.339844 30.359375 C 121.617188 30.539062 121.847656 30.789062 122.007812 31.078125 C 122.191406 31.429688 122.285156 31.824219 122.269531 32.21875 C 122.269531 32.660156 122.164062 33.09375 121.960938 33.484375 C 121.734375 33.914062 121.421875 34.289062 121.039062 34.582031 C 120.589844 34.925781 120.089844 35.1875 119.550781 35.355469 C 118.894531 35.558594 118.214844 35.660156 117.527344 35.648438 C 116.875 35.65625 116.226562 35.585938 115.59375 35.4375 C 115.117188 35.320312 114.660156 35.132812 114.242188 34.878906 C 113.917969 34.679688 113.644531 34.40625 113.445312 34.078125 C 113.277344 33.792969 113.191406 33.46875 113.1875 33.140625 C 113.179688 32.746094 113.316406 32.359375 113.574219 32.0625 C 113.863281 31.746094 114.226562 31.507812 114.632812 31.371094 C 114.421875 31.234375 114.242188 31.046875 114.117188 30.828125 C 113.980469 30.570312 113.914062 30.28125 113.921875 29.992188 C 113.925781 29.839844 113.949219 29.691406 113.996094 29.542969 C 114.050781 29.382812 114.128906 29.230469 114.226562 29.089844 C 114.339844 28.933594 114.472656 28.789062 114.625 28.667969 C 114.800781 28.527344 114.992188 28.410156 115.195312 28.320312 C 114.722656 28.078125 114.316406 27.71875 114.019531 27.277344 C 113.5 26.421875 113.453125 25.359375 113.898438 24.464844 C 114.097656 24.082031 114.382812 23.746094 114.726562 23.484375 C 115.105469 23.207031 115.527344 22.996094 115.972656 22.867188 C 116.472656 22.71875 116.992188 22.640625 117.511719 22.636719 Z M 119.621094 32.703125 C 119.628906 32.5625 119.578125 32.425781 119.480469 32.324219 C 119.367188 32.222656 119.238281 32.144531 119.09375 32.097656 C 118.90625 32.039062 118.714844 31.996094 118.523438 31.976562 C 118.292969 31.953125 118.0625 31.941406 117.828125 31.941406 L 117.039062 31.941406 C 116.769531 31.941406 116.5 31.914062 116.238281 31.863281 C 116.070312 31.976562 115.921875 32.113281 115.800781 32.273438 C 115.6875 32.421875 115.628906 32.601562 115.628906 32.785156 C 115.628906 32.914062 115.660156 33.042969 115.714844 33.15625 C 115.789062 33.277344 115.894531 33.378906 116.023438 33.441406 C 116.210938 33.535156 116.414062 33.597656 116.621094 33.628906 C 116.929688 33.683594 117.246094 33.707031 117.5625 33.699219 C 117.902344 33.707031 118.238281 33.679688 118.574219 33.628906 C 118.792969 33.589844 119.003906 33.519531 119.203125 33.417969 C 119.339844 33.347656 119.453125 33.238281 119.527344 33.101562 C 119.59375 32.972656 119.625 32.832031 119.617188 32.691406 L 119.617188 32.703125 Z M 117.507812 27.082031 C 118.15625 27.175781 118.753906 26.726562 118.84375 26.078125 C 118.859375 25.992188 118.859375 25.898438 118.851562 25.808594 C 118.871094 25.476562 118.753906 25.148438 118.535156 24.898438 C 117.921875 24.457031 117.097656 24.457031 116.484375 24.898438 C 116.261719 25.148438 116.148438 25.476562 116.164062 25.808594 C 116.164062 25.980469 116.191406 26.152344 116.246094 26.316406 C 116.292969 26.46875 116.375 26.605469 116.488281 26.71875 C 116.605469 26.835938 116.75 26.929688 116.90625 26.984375 C 117.101562 27.054688 117.304688 27.085938 117.507812 27.082031 Z M 117.507812 27.082031 "/>
<path style=" stroke:none;fill-rule:nonzero;fill:rgb(0%,0%,0%);fill-opacity:1;" d="M 127.289062 22.65625 C 127.878906 22.648438 128.46875 22.75 129.023438 22.949219 C 129.527344 23.136719 129.988281 23.429688 130.371094 23.808594 C 130.761719 24.203125 131.0625 24.675781 131.253906 25.195312 C 131.476562 25.785156 131.582031 26.414062 131.574219 27.042969 C 131.574219 27.21875 131.566406 27.394531 131.546875 27.570312 C 131.535156 27.683594 131.5 27.792969 131.445312 27.894531 C 131.402344 27.96875 131.332031 28.027344 131.25 28.054688 C 131.144531 28.089844 131.039062 28.105469 130.929688 28.105469 L 125.429688 28.105469 C 125.457031 28.75 125.714844 29.367188 126.15625 29.839844 C 126.574219 30.210938 127.117188 30.402344 127.675781 30.378906 C 127.964844 30.386719 128.253906 30.34375 128.53125 30.257812 C 128.75 30.1875 128.964844 30.097656 129.167969 29.992188 L 129.683594 29.726562 C 129.835938 29.644531 130.003906 29.605469 130.175781 29.605469 C 130.378906 29.59375 130.574219 29.6875 130.691406 29.855469 L 131.519531 30.894531 C 131.246094 31.203125 130.929688 31.472656 130.578125 31.6875 C 130.253906 31.894531 129.90625 32.0625 129.539062 32.1875 C 129.191406 32.304688 128.828125 32.386719 128.464844 32.4375 C 128.117188 32.484375 127.773438 32.503906 127.425781 32.503906 C 126.785156 32.511719 126.144531 32.398438 125.542969 32.179688 C 124.96875 31.96875 124.445312 31.636719 124.007812 31.207031 C 123.554688 30.753906 123.199219 30.207031 122.96875 29.605469 C 122.699219 28.890625 122.570312 28.136719 122.585938 27.375 C 122.589844 26.753906 122.707031 26.140625 122.933594 25.5625 C 123.140625 25.003906 123.457031 24.492188 123.867188 24.058594 C 124.285156 23.613281 124.789062 23.261719 125.347656 23.015625 C 125.964844 22.765625 126.625 22.644531 127.289062 22.65625 Z M 127.347656 24.628906 C 126.878906 24.605469 126.421875 24.773438 126.078125 25.09375 C 125.742188 25.464844 125.53125 25.933594 125.46875 26.433594 L 129.03125 26.433594 C 129.03125 26.210938 129 25.988281 128.941406 25.773438 C 128.886719 25.5625 128.789062 25.367188 128.65625 25.195312 C 128.515625 25.019531 128.339844 24.878906 128.136719 24.785156 C 127.890625 24.671875 127.617188 24.617188 127.347656 24.625 Z M 127.347656 24.628906 "/>
<path style=" stroke:none;fill-rule:nonzero;fill:rgb(0%,0%,0%);fill-opacity:1;" d="M 132.898438 32.359375 L 132.898438 18.785156 L 134.535156 18.785156 L 134.535156 24.28125 C 134.917969 23.871094 135.363281 23.527344 135.859375 23.265625 C 136.378906 23.003906 136.953125 22.875 137.53125 22.886719 C 137.992188 22.875 138.453125 22.960938 138.878906 23.136719 C 139.253906 23.296875 139.589844 23.542969 139.855469 23.855469 C 140.125 24.1875 140.328125 24.566406 140.449219 24.976562 C 140.585938 25.445312 140.65625 25.933594 140.648438 26.425781 L 140.648438 32.359375 L 139.015625 32.359375 L 139.015625 26.417969 C 139.050781 25.828125 138.878906 25.246094 138.527344 24.773438 C 138.15625 24.359375 137.609375 24.140625 137.054688 24.1875 C 136.578125 24.183594 136.113281 24.304688 135.699219 24.535156 C 135.261719 24.78125 134.867188 25.101562 134.535156 25.480469 L 134.535156 32.359375 Z M 132.898438 32.359375 "/>
<path style=" stroke:none;fill-rule:nonzero;fill:rgb(0%,0%,0%);fill-opacity:1;" d="M 143.984375 23.023438 L 143.984375 28.980469 C 143.949219 29.566406 144.121094 30.148438 144.472656 30.617188 C 144.847656 31.027344 145.390625 31.238281 145.945312 31.195312 C 146.417969 31.195312 146.882812 31.078125 147.296875 30.847656 C 147.738281 30.605469 148.132812 30.285156 148.460938 29.902344 L 148.460938 23.023438 L 150.101562 23.023438 L 150.101562 32.359375 L 149.125 32.359375 C 148.910156 32.375 148.71875 32.222656 148.683594 32.011719 L 148.554688 31.003906 C 148.171875 31.445312 147.714844 31.8125 147.203125 32.09375 C 146.667969 32.375 146.074219 32.515625 145.472656 32.503906 C 145.007812 32.515625 144.550781 32.429688 144.125 32.25 C 143.75 32.097656 143.414062 31.863281 143.144531 31.558594 C 142.871094 31.230469 142.667969 30.851562 142.550781 30.441406 C 142.414062 29.972656 142.347656 29.484375 142.355469 28.996094 L 142.355469 23.023438 Z M 143.984375 23.023438 "/>
<path style=" stroke:none;fill-rule:nonzero;fill:rgb(0%,0%,0%);fill-opacity:1;" d="M 155.0625 32.503906 C 154.4375 32.546875 153.824219 32.324219 153.371094 31.890625 C 152.945312 31.398438 152.730469 30.757812 152.773438 30.109375 L 152.773438 24.398438 L 151.652344 24.398438 C 151.5625 24.402344 151.476562 24.371094 151.40625 24.3125 C 151.335938 24.238281 151.296875 24.136719 151.308594 24.035156 L 151.308594 23.382812 L 152.832031 23.1875 L 153.207031 20.304688 C 153.21875 20.21875 153.261719 20.136719 153.328125 20.078125 C 153.402344 20.019531 153.492188 19.988281 153.585938 19.992188 L 154.414062 19.992188 L 154.414062 23.210938 L 157.082031 23.210938 L 157.082031 24.398438 L 154.414062 24.398438 L 154.414062 30 C 154.386719 30.320312 154.488281 30.636719 154.699219 30.878906 C 154.894531 31.070312 155.160156 31.171875 155.4375 31.164062 C 155.585938 31.164062 155.734375 31.140625 155.878906 31.09375 C 155.992188 31.054688 156.105469 31 156.207031 30.941406 C 156.289062 30.894531 156.363281 30.84375 156.441406 30.789062 C 156.488281 30.75 156.546875 30.722656 156.609375 30.71875 C 156.710938 30.726562 156.800781 30.785156 156.84375 30.878906 L 157.320312 31.65625 C 157.023438 31.933594 156.679688 32.148438 156.300781 32.289062 C 155.90625 32.4375 155.488281 32.507812 155.066406 32.503906 Z M 155.0625 32.503906 "/>
</g>
</svg>
